<?xml version="1.0" encoding="UTF-8" standalone="no"?>
<svg width="35px" height="32px" viewBox="0 0 35 32" version="1.1" xmlns="http://www.w3.org/2000/svg" xmlns:xlink="http://www.w3.org/1999/xlink">
    <!-- Generator: Sketch 42 (36781) - http://www.bohemiancoding.com/sketch -->
    <title>Page 1</title>
    <desc>Created with Sketch.</desc>
    <defs>
        <polygon id="path-1" points="34.9689293 0.0356095075 34.9689293 25.8501703 -2.70121427e-06 25.8501703 -2.70121427e-06 0.0356095075 34.9689293 0.0356095075"></polygon>
        <polygon id="path-3" points="10.9406659 7.83936652 0.0158239059 7.83936652 0.0158239059 0.0359713281 10.9406659 0.0359713281"></polygon>
    </defs>
    <g id="MVP" stroke="none" stroke-width="1" fill="none" fill-rule="evenodd">
        <g id="SkillWill_Home_Desktop_Skills_Results_Profile" transform="translate(-709.000000, -325.000000)">
            <g id="Profil-Layer-centered">
                <g id="Group-28" transform="translate(567.000000, 90.000000)">
                    <g id="Group-17" transform="translate(89.000000, 234.000000)">
                        <g id="Page-1" transform="translate(53.000000, 1.000000)">
                            <g id="Group-3" transform="translate(0.000000, 0.000690)">
                                <mask id="mask-2" fill="white">
                                    <use xlink:href="#path-1"></use>
                                </mask>
                                <g id="Clip-2"></g>
                                <path d="M16.8901632,1.06521748 C18.255236,0.271844551 19.8717121,-0.083830411 21.4445291,0.0711422511 C22.857263,0.203250094 24.2267017,0.743295343 25.3534688,1.60272219 C26.784394,2.69116016 27.811473,4.29133456 28.2149553,6.03994881 C29.2118368,6.30017223 30.162185,6.74912113 30.9782089,7.37881099 C31.9983753,8.15331137 32.8144356,9.18912396 33.3438015,10.3530521 C33.8844459,11.5452891 34.119841,12.8721745 34.0241549,14.1776468 C34.0172422,14.3104805 33.9881362,14.4418625 33.990683,14.575422 C34.0365249,14.7115222 34.1242069,14.8291127 34.186421,14.95868 C34.725974,16.0257048 34.9981154,17.2262893 34.9664626,18.4214298 C34.9286247,20.1573413 34.2395395,21.8722028 33.0578347,23.1475516 C32.0329387,24.2624837 30.6438534,25.0402505 29.1518056,25.3168059 C28.9939054,25.3476916 28.8378243,25.2932515 28.6813794,25.2823272 C28.4077827,25.2605512 28.1847578,25.0043563 28.1894875,24.7328457 C28.1836663,24.4943983 28.3492069,24.266113 28.5773254,24.1960668 C28.7879802,24.1321905 29.0117328,24.196829 29.2253347,24.1532407 C30.2130842,23.9187855 31.1346538,23.4222923 31.8797682,22.734896 C32.7813274,21.9099479 33.4162027,20.8026373 33.6876164,19.6133038 C34.0139678,18.2152835 33.8215042,16.7076571 33.1651632,15.4312196 C33.1124085,15.3201619 32.9901632,15.2697141 32.9203087,15.1724479 C32.8228035,15.0436064 32.7922422,14.8741164 32.823895,14.7173291 C33.0640198,13.3193087 32.840631,11.8494275 32.2053919,10.5813374 C31.6978555,9.56584908 30.9258181,8.68137981 29.9824189,8.04660888 C29.2642277,7.56172954 28.4478035,7.2234754 27.5975437,7.05289659 C27.3374085,6.99773067 27.1562235,6.73932193 27.1700489,6.47800971 C27.0587183,6.02615733 26.9270135,5.57503083 26.7396435,5.14713207 C26.2433857,4.00461699 25.4247786,2.99856495 24.3933337,2.29519957 C23.0770135,1.39330948 21.4212807,0.994445419 19.8382401,1.21946427 C18.0111091,1.4593634 16.3171383,2.52312189 15.2962443,4.05107249 C15.2423981,4.16503365 15.2187495,4.29786736 15.1223358,4.38714904 C14.9404231,4.58676254 14.6173462,4.61579723 14.3957765,4.46517977 C13.732159,4.06994504 12.9921383,3.8137139 12.2331985,3.67761378 C11.0358493,3.47110454 9.78101559,3.60865639 8.659342,4.07502611 C7.70029834,4.46481684 6.8434896,5.09414376 6.1678659,5.87590281 C5.90845842,6.21125349 5.63813617,6.5426119 5.43584927,6.91643354 C4.6372526,8.32316431 4.35710707,10.0216937 4.69291788,11.605899 C4.7391237,11.7880917 4.7132921,11.9935122 4.58777235,12.1394115 C4.50300104,12.2540985 4.35528794,12.2878513 4.25232536,12.3811253 C4.13553742,12.4852872 3.99801143,12.5611404 3.87321933,12.6544143 C2.99567256,13.2942663 2.27529834,14.149338 1.80341684,15.1270812 C0.961888773,16.8383133 0.896400208,18.9146566 1.65133784,20.6683519 C1.89073493,21.2581191 2.21854158,21.8141334 2.62930042,22.3015533 C3.46209667,23.32724 4.60596362,24.0998894 5.87826091,24.4682671 C6.4403711,24.6424752 7.03013202,24.6932859 7.61479938,24.7252241 C8.47561019,24.7266758 9.33605717,24.7241353 10.196868,24.7263129 C10.4711923,24.714699 10.730236,24.9306445 10.7651632,25.2025181 C10.8048202,25.4387516 10.6731154,25.6891758 10.4562755,25.7911602 C10.30929,25.8659245 10.1404751,25.8452736 9.98148337,25.848177 C9.04717983,25.8477778 8.1128763,25.8463261 7.17857277,25.8496288 C7.05450832,25.8550365 6.9351736,25.8187431 6.8147474,25.7944266 C4.98033992,25.5980795 3.24089085,24.6831238 2.01443555,23.3126864 C1.50580769,22.7588496 1.08304262,22.1255304 0.761784823,21.4457558 C-0.0513648649,19.7475893 -0.224545738,17.7532689 0.295360707,15.942956 C0.790527027,14.1442569 1.9649553,12.5437196 3.53158732,11.5256907 C3.234342,9.74332362 3.58143139,7.865505 4.49026715,6.3030757 C4.61942516,6.06426537 4.77950832,5.84432758 4.9414106,5.62693034 C5.72472661,4.52760436 6.82020478,3.65692656 8.05466424,3.11107438 C9.65076611,2.40335379 11.4971798,2.26253554 13.1773254,2.74451141 C13.6313794,2.86028724 14.0679699,3.03631005 14.4903711,3.23737528 C15.1256102,2.35617242 15.948947,1.60998086 16.8901632,1.06521748" id="Fill-1" fill="#000000" mask="url(#mask-2)"></path>
                            </g>
                            <path d="M9.63076299,4.46442124 C9.89162578,4.36388862 10.2107006,4.49926287 10.3249418,4.75259054 C10.4475509,4.99539315 10.3565946,5.31912995 10.1248378,5.4621258 C9.9651185,5.55140748 9.7915738,5.61383206 9.63003534,5.70021027 C9.45467152,5.79529888 9.23019127,5.79638768 9.06028482,5.68968519 C8.88419335,5.58552324 8.77686486,5.37937693 8.79214553,5.1761341 C8.80124116,4.98595687 8.91693763,4.80666766 9.0857526,4.71811185 C9.2622079,4.62411204 9.44448441,4.53882263 9.63076299,4.46442124" id="Fill-4" fill="#000000"></path>
                            <path d="M7.73922765,5.70566153 C7.98008004,5.64287401 8.25222141,5.76119038 8.36791788,5.98112816 C8.48470582,6.18836326 8.44832328,6.4670963 8.28132744,6.63694924 C7.97280353,6.9494351 7.66900936,7.2699055 7.43070374,7.6400978 C7.09998649,8.07997337 6.85767879,8.57973298 6.67722141,9.09800222 C6.51859356,9.51682763 6.43054782,9.95742906 6.37269958,10.4002081 C6.33886383,10.7043465 6.02342723,10.936624 5.72254366,10.8771029 C5.44603638,10.8368173 5.22810499,10.5667946 5.25430042,10.2884245 C5.3401632,9.47944547 5.58065177,8.69079068 5.93210707,7.95802767 C6.04707588,7.73700108 6.14967464,7.50762703 6.29593243,7.30438419 C6.47966424,7.05069358 6.63247089,6.77522695 6.8420343,6.54040889 C7.02394699,6.32410044 7.21568295,6.11577654 7.4143316,5.9147113 C7.50419647,5.82143736 7.609342,5.73360742 7.73922765,5.70566153" id="Fill-6" fill="#000000"></path>
                            <path d="M24.6600213,14.892597 C24.5403228,14.9136472 24.420988,14.9474 24.3162063,15.0105504 C24.1386596,15.1165271 23.9527448,15.2250442 23.8323186,15.3981636 C23.5867365,15.712827 23.4826824,16.1374594 23.5732749,16.527976 C23.6242105,16.8099754 23.7788363,17.0640289 23.9800317,17.2650942 C24.3016533,17.5532635 24.766986,17.6937188 25.1904787,17.5841128 C25.4593456,17.5369315 25.6907386,17.3765148 25.8839298,17.1914186 C26.0229111,17.009226 26.1531606,16.8114271 26.2161024,16.5893117 C26.2521211,16.4016751 26.2543041,16.2071426 26.2284725,16.0180542 C26.1811752,15.6442326 25.9486907,15.3096077 25.6456242,15.0932993 C25.3600213,14.9023962 24.9972874,14.8330759 24.6600213,14.892597 M24.5887115,13.766051 C25.1431814,13.6912867 25.716934,13.8226686 26.1946367,14.1093862 C26.6490546,14.3942891 27.0005099,14.8279948 27.2053436,15.3212216 C27.3676097,15.7498462 27.4025369,16.2191194 27.3446887,16.6716977 C27.2846575,17.1369786 27.0223394,17.5412867 26.7563831,17.9158342 C26.6468716,18.0617335 26.4827864,18.1513781 26.3448966,18.266791 C25.9646991,18.5669371 25.4829943,18.7048519 25.0063831,18.7458634 C24.3474953,18.7687282 23.6867885,18.5244739 23.2021731,18.0791543 C22.8343456,17.7133172 22.5578384,17.2465846 22.4672458,16.7326705 C22.3369964,16.1316524 22.4548758,15.483453 22.7735868,14.9586509 C23.1541481,14.3148067 23.8417781,13.8509775 24.5887115,13.766051" id="Fill-8" fill="#000000"></path>
                            <path d="M17.1604927,14.9575621 C17.0233306,15.0014771 16.880711,15.0432145 16.7646507,15.1314073 C16.4623119,15.3538857 16.2025405,15.6743561 16.1654304,16.0587028 C16.1563347,16.2761 16.1184969,16.5032965 16.2087256,16.7098057 C16.2964075,17.0172105 16.5070624,17.2767081 16.768289,17.4556343 C16.9647547,17.5626998 17.1808669,17.6374641 17.4038919,17.6625065 C17.9656383,17.6919041 18.5492141,17.35365 18.7351289,16.8114271 C19.0309189,16.1690346 18.7067505,15.3335614 18.0675094,15.0395851 C17.7884553,14.9038479 17.4591933,14.8722727 17.1604927,14.9575621 M17.2001497,13.8008926 C17.8484865,13.7246766 18.5248378,13.9155797 19.0323742,14.3264205 C19.3863763,14.6022501 19.6359605,14.9895003 19.8116881,15.3974377 C20.0008773,15.9418381 20.0401341,16.5573736 19.8276965,17.1014111 C19.6734345,17.5597963 19.3954719,17.987695 18.9963555,18.2693315 C18.6470832,18.5545974 18.2068545,18.7102959 17.7629875,18.7676394 C17.2649106,18.8438555 16.759921,18.7037631 16.3142349,18.4867288 C16.0522807,18.3662348 15.8430811,18.1608144 15.6462516,17.9553939 C15.3802952,17.6686764 15.2096611,17.309735 15.099422,16.938091 C14.9939127,16.6956513 15.0270208,16.4281692 15.032842,16.1719381 C15.0455759,15.959259 15.0404823,15.7382324 15.1270728,15.5389818 C15.2209397,15.2649669 15.3384553,14.9942184 15.5305551,14.7731918 C15.6793597,14.608057 15.801605,14.411347 15.999526,14.2981117 C16.3437048,14.0259115 16.7657422,13.8585991 17.2001497,13.8008926" id="Fill-10" fill="#000000"></path>
                            <path d="M9.99167775,15.1687822 C9.79593971,15.274033 9.58237422,15.3484344 9.40773805,15.4892526 C9.17961954,15.6337002 9.06101247,15.8888426 8.96459875,16.1301934 C8.85654262,16.3936833 8.8649106,16.6898371 8.93003534,16.9627632 C9.01917256,17.2022994 9.15087734,17.4327623 9.34006653,17.6076963 C9.47104366,17.712947 9.61948441,17.7971476 9.77629314,17.8581205 C10.1357526,18.0065603 10.5588815,17.9553867 10.89542,17.7713793 C11.1468233,17.6153179 11.3643909,17.3888473 11.4706279,17.1097513 C11.6387152,16.7602462 11.616158,16.3435984 11.4680811,15.9915528 C11.3934969,15.8431129 11.2832578,15.7164491 11.1781123,15.5890594 C11.0409501,15.4221099 10.8419376,15.323029 10.641106,15.2537087 C10.4340894,15.1727745 10.2059709,15.2134231 9.99167775,15.1687822 M9.81704158,14.1848692 C9.92182328,14.1224446 10.0357006,14.0643752 10.161948,14.0701821 C10.4315426,14.0756261 10.7087775,14.081796 10.9649106,14.1776105 C11.2024886,14.2614482 11.4404304,14.3561738 11.6445364,14.5067913 C11.9148586,14.6806365 12.1091414,14.9434005 12.2979667,15.1970911 C12.5639231,15.5494996 12.6716154,15.9930045 12.7123638,16.4252585 C12.728736,16.821582 12.6643389,17.2258901 12.4897027,17.5848314 C12.4103888,17.7358118 12.3656383,17.9085683 12.247395,18.035958 C12.0800353,18.2290387 11.9134033,18.4261116 11.705659,18.5778179 C11.1893909,18.9770449 10.5053992,19.1287511 9.86288358,19.0438247 C9.38445322,18.9567206 8.92930769,18.7396863 8.56184407,18.4217564 C8.21148025,18.0831393 7.95243659,17.6479819 7.82073181,17.1797975 C7.74141788,16.7566169 7.71776923,16.3094827 7.85711435,15.8957383 C7.92114761,15.722256 7.95098129,15.5328047 8.05612682,15.3774691 C8.2107526,15.1499097 8.33772765,14.8929527 8.56293555,14.7234627 C8.7157422,14.6091386 8.8605447,14.4821118 9.02535759,14.3855715 C9.27385031,14.2745138 9.53143867,14.0999427 9.81704158,14.1848692" id="Fill-12" fill="#000000"></path>
                            <path d="M25.7816985,24.1989558 C25.8963035,24.1644771 26.017421,24.1724616 26.1360644,24.1713365 C26.5100769,24.1750022 26.884817,24.1669813 27.2588295,24.1746029 C27.557894,24.1858902 27.8049314,24.4744224 27.7780083,24.770177 C27.7645468,25.0525757 27.5095052,25.2978825 27.2246299,25.2931644 C26.8004096,25.2946161 26.376553,25.2942895 25.9526965,25.2928378 C25.6780083,25.3004594 25.4247495,25.076856 25.3960437,24.8054179 C25.3563867,24.5447952 25.5288399,24.2748089 25.7816985,24.1989558" id="Fill-14" fill="#000000"></path>
                            <g id="Group-18" transform="translate(13.898129, 24.208363)">
                                <mask id="mask-4" fill="white">
                                    <use xlink:href="#path-3"></use>
                                </mask>
                                <g id="Clip-17"></g>
                                <path d="M9.22327131,0.311030496 C9.32114033,0.132866374 9.52488254,0.0297569287 9.72607796,0.0366526678 C9.94400936,0.038467336 10.1615769,0.034874293 10.3795083,0.0363260275 C10.5716081,0.0337491987 10.7586143,0.13939918 10.8579387,0.303045956 C11.0165665,0.547336586 10.9390717,0.904100349 10.6938534,1.06161355 C10.5017536,1.19985497 10.2532609,1.14944349 10.0324189,1.15775467 C9.7166185,2.1304531 9.22909252,3.04105359 8.64515281,3.87906735 C7.42815696,5.60187703 5.65923805,6.9364203 3.65565177,7.61144056 C3.52103638,7.72870442 3.36932121,7.85427946 3.17685759,7.83794745 C2.80393659,7.85282772 2.51251247,7.43545404 2.65040229,7.09026786 C3.24889501,5.28249543 3.26526715,3.29107857 2.69842723,1.47350693 C1.99660811,1.47241813 1.29478898,1.47350693 0.59333368,1.47281735 C0.346296258,1.4829432 0.109445946,1.30986015 0.042502079,1.07359036 C-0.0771964657,0.727351669 0.22368711,0.331028139 0.590059252,0.350989489 C1.19764761,0.350626555 1.80523597,0.351316129 2.41282432,0.350989489 C2.60637942,0.349174821 2.80211746,0.363655873 2.9934896,0.325910775 C3.25035031,0.269329421 3.52831289,0.42825806 3.61563098,0.674363358 C4.26505925,2.45161308 4.40949792,4.40786166 4.03293867,6.26169038 C4.98215904,5.83709432 5.85752287,5.24946847 6.60736694,4.52940814 C7.48855198,3.68816426 8.18091164,2.66142501 8.6782973,1.55302569 C8.80378067,1.26663476 8.90965385,0.972331872 9.00533992,0.675052932 C9.04936279,0.538263245 9.15523597,0.435190092 9.22327131,0.311030496" id="Fill-16" fill="#000000" mask="url(#mask-4)"></path>
                            </g>
                            <path d="M11.8413586,24.5259481 C12.0432817,24.5096161 12.2495707,24.504535 12.4507661,24.532118 C12.7560156,24.597446 12.9539366,24.945826 12.8538846,25.2412903 C12.7865769,25.4742937 12.553001,25.6434208 12.3099657,25.636525 C12.0705686,25.6321335 11.7955166,25.6844323 11.596868,25.5153052 C11.3527412,25.3298098 11.3152672,24.9415071 11.5201008,24.7128226 C11.6015977,24.6166815 11.7169304,24.5488129 11.8413586,24.5259481" id="Fill-19" fill="#000000"></path>
                        </g>
                    </g>
                </g>
            </g>
        </g>
    </g>
</svg>