<svg xmlns="http://www.w3.org/2000/svg" viewBox="0 0 31 31"><path fill="none" stroke="#FF0354" stroke-width="1.5" d="M23.81 17.95l-1.884.63.65 1.95c.257.79-.162 1.65-.952 1.907-.162.046-.348.093-.51.07a1.55 1.55 0 0 1-1.396-1.023l-.65-1.952-3.88 1.3.65 1.953c.255.79-.163 1.65-.953 1.906-.163.047-.35.094-.512.07a1.55 1.55 0 0 1-1.394-1.022l-.65-1.952-1.884.627c-.163.047-.35.094-.512.07A1.552 1.552 0 0 1 8.54 21.46c-.256-.79.163-1.65.953-1.905l1.882-.628-1.255-3.74-1.882.626c-.163.047-.35.093-.512.07a1.55 1.55 0 0 1-1.394-1.022c-.256-.79.163-1.65.953-1.905l1.882-.628-.65-1.952c-.256-.79.162-1.65.953-1.906.79-.256 1.65.162 1.905.952l.65 1.952 3.882-1.3-.65-1.953c-.256-.79.162-1.65.952-1.905.79-.256 1.65.163 1.905.953l.65 1.952 1.883-.627c.79-.256 1.65.162 1.906.952.255.79-.163 1.65-.953 1.906l-1.882.63 1.255 3.74 1.883-.627c.79-.256 1.65.162 1.906.953.255.79-.163 1.65-.953 1.905zm5.042-6.483c-2.998-9.993-7.32-12.317-17.314-9.32-9.993 3-12.318 7.32-9.32 17.315 3 9.993 7.32 12.317 17.315 9.32 9.993-3 12.317-7.32 9.32-17.315zm-15.884 2.798l3.878-1.3 1.255 3.747-3.877 1.3-1.255-3.747zm0 0l3.878-1.3 1.255 3.747-3.877 1.3-1.255-3.747z"/></svg>