<?xml version="1.0" encoding="UTF-8" standalone="no"?>
<svg width="25px" height="30px" viewBox="0 0 25 30" version="1.1" xmlns="http://www.w3.org/2000/svg" xmlns:xlink="http://www.w3.org/1999/xlink">
    <!-- Generator: Sketch 42 (36781) - http://www.bohemiancoding.com/sketch -->
    <title>Page 1</title>
    <desc>Created with Sketch.</desc>
    <defs></defs>
    <g id="MVP" stroke="none" stroke-width="1" fill="none" fill-rule="evenodd">
        <g id="SkillWill_Home_Desktop_Skills_Results_Profile" transform="translate(-663.000000, -691.000000)" fill="#000000">
            <g id="Profil-Layer-centered">
                <g id="Optionen" transform="translate(499.000000, 620.000000)">
                    <g id="Group-5" transform="translate(35.000000, 0.000000)">
                        <g id="Group-29" transform="translate(129.000000, 69.000000)">
                            <path d="M4.3902439,29.804878 L19.7560976,29.804878 L19.7560976,12.2439024 L4.3902439,12.2439024 L4.3902439,29.804878 Z M2.19512195,10.0487805 L21.9512195,10.0487805 L21.9512195,7.12195122 L2.19512195,7.12195122 L2.19512195,10.0487805 Z M9.51219512,4.92682927 L14.6341463,4.92682927 L14.6341463,4.19512195 L9.51219512,4.19512195 L9.51219512,4.92682927 Z M9.51219512,2 C8.31146341,2 7.31707317,2.93146341 7.31707317,4.19512195 L7.31707317,4.92682927 L1.82926829,4.92682927 C0.834878049,4.92682927 0,5.76170732 0,6.75609756 L0,10.4146341 C0,11.4090244 0.834878049,12.2439024 1.82926829,12.2439024 L2.19512195,12.2439024 L2.19512195,30.1707317 C2.19512195,31.165122 3.03,32 4.02439024,32 L20.1219512,32 C21.1163415,32 21.9512195,31.165122 21.9512195,30.1707317 L21.9512195,12.2439024 L22.3170732,12.2439024 C23.3114634,12.2439024 24.1463415,11.4090244 24.1463415,10.4146341 L24.1463415,6.75609756 C24.1463415,5.76170732 23.3114634,4.92682927 22.3170732,4.92682927 L16.8292683,4.92682927 L16.8292683,4.19512195 C16.8292683,2.93146341 15.834878,2 14.6341463,2 L9.51219512,2 Z" id="Page-1"></path>
                        </g>
                    </g>
                </g>
            </g>
        </g>
    </g>
</svg>