
<svg width="20px" height="21px" viewBox="0 0 20 21" version="1.1" xmlns="http://www.w3.org/2000/svg" xmlns:xlink="http://www.w3.org/1999/xlink">
    <!-- Generator: Sketch 44.1 (41455) - http://www.bohemiancoding.com/sketch -->
    <desc>Created with Sketch.</desc>
    <defs></defs>
    <g id="MVP" stroke="none" stroke-width="1" fill="none" fill-rule="evenodd">
        <g id="SkillWill_Profile" transform="translate(-1249.000000, -934.000000)" fill="#FF0354">
            <g id="Group" transform="translate(1248.000000, 934.000000)">
                <path d="M4.05282259,14.4818825 L6.52487081,16.9539307 L3.03653609,17.9702172 L4.05282259,14.4818825 Z M16.2207933,1.70963336 C16.2757277,1.65469895 16.3581293,1.62723175 16.4130637,1.62723175 C16.4954653,1.62723175 16.5503997,1.65469895 16.6053341,1.70963336 L19.3245872,4.4288864 C19.3795216,4.51128801 19.4069888,4.59368962 19.4069888,4.62115682 C19.4069888,4.64862402 19.4069888,4.75849283 19.3245872,4.81342724 L17.3469486,6.79106582 L14.2431547,3.68727194 L16.2207933,1.70963336 Z M13.062065,4.86836164 L16.1658589,7.97215553 L8.00809975,16.1299147 L4.90430586,13.0261208 L13.062065,4.86836164 Z M2.0477168,20.0030649 L7.78836213,18.3272909 C8.09050135,18.2448893 8.39264058,18.0803607 8.6123782,17.8328812 L20.4507425,5.99451695 C20.8078161,5.63744331 21.0000865,5.14303367 21.0000865,4.62115682 C21.0000865,4.09927997 20.8078161,3.63233753 20.4507425,3.2752639 L17.7314894,0.556010851 C16.989875,-0.185603617 15.7538509,-0.185603617 15.0122364,0.556010851 L3.20133931,12.3943751 C2.98160169,12.6141128 2.81679847,12.916252 2.70692966,13.2183912 L1.03143031,18.9590365 C0.949028702,19.2337086 1.03143031,19.563315 1.25116793,19.7830526 C1.41597115,19.9478558 1.63570877,20.0302574 1.82797918,20.0302574 C1.91038079,20.0302574 1.9927824,20.0302574 2.0477168,20.0030649 Z" id="Fill-1"></path>
            </g>
        </g>
    </g>
</svg>