<svg width="20" height="21" viewBox="0 0 20 21" xmlns="http://www.w3.org/2000/svg"><path d="M3.053 14.482l2.472 2.472-3.488 1.016 1.016-3.488zM15.22 1.71a.297.297 0 0 1 .192-.083.25.25 0 0 1 .192.083l2.72 2.719a.478.478 0 0 1 .082.192c0 .028 0 .137-.082.192l-1.978 1.978-3.104-3.104L15.22 1.71zm-3.159 3.158l3.104 3.104-8.158 8.158-3.104-3.104 8.158-8.158zM1.048 20.003l5.74-1.676a1.7 1.7 0 0 0 .824-.494L19.451 5.995A1.93 1.93 0 0 0 20 4.62c0-.522-.193-.989-.55-1.346L16.73.556a1.94 1.94 0 0 0-2.719 0L2.202 12.394c-.22.22-.385.522-.495.824L.03 18.96a.85.85 0 0 0 .797 1.071c.082 0 .165 0 .22-.027z" fill="#FF0354" fill-rule="evenodd"/></svg>