
<svg width="838px" height="298px" viewBox="0 0 838 298" version="1.1" xmlns="http://www.w3.org/2000/svg" xmlns:xlink="http://www.w3.org/1999/xlink">
    <defs>
        <polygon id="path-1" points="-2.84217094e-14 34.3248731 12.4778585 34.3248731 12.4778585 4.26325641e-14 -2.84217094e-14 4.26325641e-14"></polygon>
        <polygon id="path-3" points="-2.84217094e-14 34.3248731 11.9191485 34.3248731 11.9191485 -1.27897692e-13 -2.84217094e-14 -1.27897692e-13"></polygon>
    </defs>
    <g id="Page-1" stroke="none" stroke-width="1" fill="none" fill-rule="evenodd">
        <g id="Skills-sparkling" transform="translate(1.000000, 2.000000)">
            <g id="Page-1" transform="translate(666.384783, 83.649709) rotate(36.000000) translate(-666.384783, -83.649709) translate(659.884783, 66.149709)">
                <path d="M6.89075771,23.7633737 L6.89075771,23.7633737 C3.81785224,23.7633737 1.30365686,21.2172979 1.30365686,18.1054276 C1.30365686,14.9935572 3.81785224,12.4474815 6.89075771,12.4474815 C9.96366317,12.4474815 12.4778585,14.9935572 12.4778585,18.1054276 C12.4778585,21.2172979 9.96366317,23.7633737 6.89075771,23.7633737" id="Fill-1" fill="#FF0354"></path>
                <g id="Group-7" transform="translate(-0.000000, 0.000000)" stroke="#1E212A" stroke-linecap="round" stroke-linejoin="round">
                    <path d="M5.77333754,22.6317845 L5.77333754,22.6317845 C2.70043207,22.6317845 0.186236695,20.0857087 0.186236695,16.9738383 C0.186236695,13.861968 2.70043207,11.3158922 5.77333754,11.3158922 C8.846243,11.3158922 11.3604384,13.861968 11.3604384,16.9738383 C11.3604384,20.0857087 8.846243,22.6317845 5.77333754,22.6317845 Z" id="Stroke-3"></path>
                    <path d="M5.58710084,0.188598204 L5.58710084,34.1362749" id="Stroke-5"></path>
                </g>
            </g>
            <g id="Page-1" transform="translate(618.966759, 14.836532) rotate(13.000000) translate(-618.966759, -14.836532) translate(613.966759, 0.836532)" stroke="#1E212A" stroke-width="0.8" stroke-linecap="round" stroke-linejoin="round">
                <path d="M4.68595554,0.151698555 L4.68595554,27.4574385" id="Stroke-1"></path>
                <polygon id="Stroke-3" points="4.84215406 9.10191332 0.156198518 13.65287 0.156198518 18.2038266 4.84215406 22.7547833 9.52810961 18.2038266 9.52810961 13.65287"></polygon>
                <polygon id="Stroke-5" points="4.84215406 4.55095666 0.156198518 9.10191332 0.156198518 13.65287 4.84215406 18.2038266 9.52810961 13.65287 9.52810961 9.10191332"></polygon>
            </g>
            <g id="Page-1" transform="translate(800.494279, 132.954325) rotate(48.000000) translate(-800.494279, -132.954325) translate(793.994279, 115.454325)">
                <polygon id="Fill-1" fill="#B6C3D6" points="1.30369411 34.8845178 12.4778958 34.8845178 6.89079495 23.6916244"></polygon>
                <g id="Group-6" transform="translate(0.000000, 0.186548)" stroke="#1E212A" stroke-linecap="round" stroke-linejoin="round">
                    <path d="M5.58710084,1.13686838e-13 L5.58710084,33.5786802" id="Stroke-2"></path>
                    <polygon id="Stroke-4" points="0.186236695 33.5786802 5.77333754 22.3857868 11.3604384 33.5786802"></polygon>
                </g>
            </g>
            <g id="Page-1" transform="translate(47.300154, 81.773588) rotate(-48.000000) translate(-47.300154, -81.773588) translate(40.800154, 64.273588)">
                <polygon id="Fill-1" fill="#03FFB7" points="1.30365686 18.2940258 12.4778585 18.2940258 12.4778585 6.97775635 1.30365686 6.97775635"></polygon>
                <polygon id="Fill-2" fill="#03FFB7" points="1.30365686 29.609918 12.4778585 29.609918 12.4778585 18.2940258 1.30365686 18.2940258"></polygon>
                <g id="Group-8" transform="translate(-0.000000, 0.000000)">
                    <path d="M5.77333754,0.188598204 L5.77333754,34.1362749 L5.77333754,0.188598204 Z" id="Stroke-3" stroke="#1E212A" stroke-linecap="round" stroke-linejoin="round"></path>
                    <mask id="mask-2" fill="white">
                        <use xlink:href="#path-1"></use>
                    </mask>
                    <g id="Clip-6"></g>
                    <polygon id="Stroke-5" stroke="#1E212A" stroke-linecap="round" stroke-linejoin="round" mask="url(#mask-2)" points="0.186236695 17.1624365 11.3604384 17.1624365 11.3604384 5.84654432 0.186236695 5.84654432"></polygon>
                    <polygon id="Stroke-7" stroke="#1E212A" stroke-linecap="round" stroke-linejoin="round" mask="url(#mask-2)" points="0.186236695 28.4783288 11.3604384 28.4783288 11.3604384 17.1624365 0.186236695 17.1624365"></polygon>
                </g>
            </g>
            <g id="Page-1" transform="translate(51.808219, 285.913642) rotate(-81.000000) translate(-51.808219, -285.913642) translate(46.308219, 271.913642)">
                <polygon id="Fill-1" fill="#FF0354" points="1.07359977 19.2657165 10.2758835 19.2657165 10.2758835 1.06219328 1.07359977 1.06219328"></polygon>
                <path d="M4.60114187,0.151698555 L4.60114187,0.739698555" id="Stroke-2" stroke="#1E212A" stroke-width="0.8" stroke-linecap="round" stroke-linejoin="round"></path>
                <path d="M4.60114187,1.51698555 L4.60114187,26.5472472" id="Stroke-4" stroke="#1E212A" stroke-width="0.8" stroke-linecap="round" stroke-linejoin="round" stroke-dasharray="1.2,1.2"></path>
                <path d="M4.60114187,27.0023428 L4.60114187,27.5903428" id="Stroke-5" stroke="#1E212A" stroke-width="0.8" stroke-linecap="round" stroke-linejoin="round"></path>
                <polyline id="Stroke-7" stroke="#1E212A" stroke-width="0.8" stroke-linecap="round" stroke-linejoin="round" points="9.35565514 17.9004295 9.35565514 18.3555252 8.89554095 18.3555252"></polyline>
                <path d="M7.97531257,18.2038266 L1.07359977,18.2038266" id="Stroke-8" stroke="#1E212A" stroke-width="0.8" stroke-linecap="round" stroke-linejoin="round" stroke-dasharray="1.2,1.2"></path>
                <g id="Group-19" transform="translate(-0.000000, -0.000000)" stroke="#1E212A" stroke-width="0.8" stroke-linecap="round" stroke-linejoin="round">
                    <polyline id="Stroke-9" points="0.613485583 18.3555252 0.153371396 18.3555252 0.153371396 17.9004295"></polyline>
                    <path d="M-8.04911693e-15,16.9902382 L-8.04911693e-15,1.06188989" id="Stroke-11" stroke-dasharray="1.2,1.2"></path>
                    <polyline id="Stroke-13" points="0.153371396 0.606794221 0.153371396 0.151698555 0.613485583 0.151698555"></polyline>
                    <path d="M1.53371396,3.52773366e-13 L8.43542676,3.52773366e-13" id="Stroke-15" stroke-dasharray="1.2,1.2"></path>
                    <polyline id="Stroke-17" points="8.89554095 0.151698555 9.35565514 0.151698555 9.35565514 0.606794221"></polyline>
                </g>
                <path d="M9.20228374,1.51698555 L9.20228374,17.4453339" id="Stroke-20" stroke="#1E212A" stroke-width="0.8" stroke-linecap="round" stroke-linejoin="round" stroke-dasharray="1.2,1.2"></path>
            </g>
            <g id="Page-1" transform="translate(213.704438, 47.510887) rotate(-16.000000) translate(-213.704438, -47.510887) translate(207.204438, 30.010887)">
                <polygon id="Fill-1" fill="#69DCE8" points="1.30369411 6.97798266 1.30369411 18.2942521 6.89079495 23.951821 12.4778958 18.2942521 12.4778958 6.97798266 6.89079495 1.32041374"></polygon>
                <g id="Group-6" transform="translate(0.000000, 0.000000)" stroke="#1E212A" stroke-linecap="round" stroke-linejoin="round">
                    <path d="M5.58710084,0.188598204 L5.58710084,34.1362749" id="Stroke-2"></path>
                    <polygon id="Stroke-4" points="5.77333754 0.188598204 0.186236695 5.84654432 0.186236695 17.1624365 5.77333754 22.8203827 11.3604384 17.1624365 11.3604384 5.84654432"></polygon>
                </g>
            </g>
            <g id="Page-1" transform="translate(575.838006, 175.846424) rotate(21.000000) translate(-575.838006, -175.846424) translate(569.338006, 158.346424)">
                <polygon id="Fill-1" fill="#03FFB7" points="1.30369411 12.6360419 1.30369411 23.9519342 6.89079495 29.6098803 12.4778958 23.9519342 12.4778958 12.6360419 6.89079495 6.97809582"></polygon>
                <path d="M5.58710084,0.188598204 L5.58710084,0.776598204" id="Stroke-2" stroke="#1E212A" stroke-linecap="round" stroke-linejoin="round"></path>
                <path d="M5.58710084,1.88598204 L5.58710084,33.0046857" id="Stroke-4" stroke="#1E212A" stroke-linecap="round" stroke-linejoin="round" stroke-dasharray="1.5,1.5"></path>
                <path d="M5.58710084,33.5704803 L5.58710084,34.1584803" id="Stroke-5" stroke="#1E212A" stroke-linecap="round" stroke-linejoin="round"></path>
                <polyline id="Stroke-7" stroke="#1E212A" stroke-linecap="round" stroke-linejoin="round" points="6.16834557 6.24656111 5.7731513 5.84635572 5.37832951 6.24656111"></polyline>
                <polyline id="Stroke-8" stroke="#1E212A" stroke-linecap="round" stroke-linejoin="round" stroke-dasharray="1.509500026702881,1.509500026702881" points="4.58317332 7.0518 0.186124953 11.5046036 0.186124953 22.8204958 4.98060242 27.675768"></polyline>
                <polyline id="Stroke-10" stroke="#1E212A" stroke-linecap="round" stroke-linejoin="round" points="5.37832951 28.078312 5.77352377 28.4785174 6.16834557 28.078312"></polyline>
                <polyline id="Stroke-11" stroke="#1E212A" stroke-linecap="round" stroke-linejoin="round" stroke-dasharray="1.509500026702881,1.509500026702881" points="6.96350176 27.2730731 11.3605501 22.8202695 11.3605501 11.5043773 6.56607265 6.64910512"></polyline>
                <polyline id="Stroke-12" stroke="#1E212A" stroke-linecap="round" stroke-linejoin="round" points="6.16834557 6.24656111 5.7731513 5.84635572 5.37832951 6.24656111"></polyline>
                <path d="M4.69301572,6.94056478 L0.92395749,10.7574152" id="Stroke-13" stroke="#1E212A" stroke-linecap="round" stroke-linejoin="round" stroke-dasharray="1.300999999046326,1.300999999046326"></path>
                <polyline id="Stroke-14" stroke="#1E212A" stroke-linecap="round" stroke-linejoin="round" points="0.581244724 11.1044736 0.186050458 11.504679 0.581244724 11.9045072"></polyline>
                <path d="M1.26655851,12.5985109 L5.03561674,16.4153613" id="Stroke-16" stroke="#1E212A" stroke-linecap="round" stroke-linejoin="round" stroke-dasharray="1.300999999046326,1.300999999046326"></path>
                <polyline id="Stroke-17" stroke="#1E212A" stroke-linecap="round" stroke-linejoin="round" points="5.37832951 16.7624198 5.77352377 17.1626251 6.16834557 16.7624198"></polyline>
                <path d="M6.85365936,16.0684161 L10.6227176,12.2515656" id="Stroke-18" stroke="#1E212A" stroke-linecap="round" stroke-linejoin="round" stroke-dasharray="1.300999999046326,1.300999999046326"></path>
                <polyline id="Stroke-19" stroke="#1E212A" stroke-linecap="round" stroke-linejoin="round" points="10.9654303 11.9045072 11.3606246 11.5043018 10.9654303 11.1044736"></polyline>
                <path d="M10.2801166,10.41047 L6.51105833,6.59361952" id="Stroke-20" stroke="#1E212A" stroke-linecap="round" stroke-linejoin="round" stroke-dasharray="1.300999999046326,1.300999999046326"></path>
            </g>
            <g id="Page-1" transform="translate(716.173484, 243.639383) rotate(66.000000) translate(-716.173484, -243.639383) translate(709.673484, 226.139383)">
                <path d="M6.89075771,26.7809449 L6.89075771,26.7809449 C3.81785224,26.7809449 1.30365686,24.2348692 1.30365686,21.1229988 L1.30365686,15.4650527 C1.30365686,12.3531824 3.81785224,9.8071066 6.89075771,9.8071066 C9.96366317,9.8071066 12.4778585,12.3531824 12.4778585,15.4650527 L12.4778585,21.1229988 C12.4778585,24.2348692 9.96366317,26.7809449 6.89075771,26.7809449" id="Fill-1" fill="#FF0354"></path>
                <path d="M5.58710084,0.188598204 L5.58710084,0.776598204" id="Stroke-3" stroke="#1E212A" stroke-linecap="round" stroke-linejoin="round"></path>
                <path d="M5.58710084,1.88598204 L5.58710084,33.0046857" id="Stroke-5" stroke="#1E212A" stroke-linecap="round" stroke-linejoin="round" stroke-dasharray="1.5,1.5"></path>
                <g id="Group-12" transform="translate(-0.000000, 8.675517)" stroke="#1E212A" stroke-linecap="round" stroke-linejoin="round">
                    <path d="M5.58710084,24.8949629 L5.58710084,25.4829629" id="Stroke-6"></path>
                    <path d="M5.77333754,16.9738383 C2.70043207,16.9738383 0.186236695,14.4277626 0.186236695,11.3158922 L0.186236695,5.65794611 C0.186236695,2.54607575 2.70043207,1.13686838e-13 5.77333754,1.13686838e-13 C8.846243,1.13686838e-13 11.3604384,2.54607575 11.3604384,5.65794611 L11.3604384,11.3158922 C11.3604384,14.4277626 8.846243,16.9738383 5.77333754,16.9738383 Z" id="Stroke-8" stroke-dasharray="1.478000044822693,1.478000044822693"></path>
                    <path d="M1.08505223,8.73537845 C-0.586235868,6.12404772 0.155731124,2.60291925 2.7343644,0.910061773 C5.31299767,-0.782418508 8.79040924,-0.0306660679 10.4616973,2.58066466 C12.1329854,5.1916182 11.3910184,8.71312386 8.81238517,10.4056041 C6.23375189,12.0984616 2.75634033,11.3467092 1.08505223,8.73537845 Z" id="Stroke-10" stroke-dasharray="1.471500039100647,1.471500039100647"></path>
                </g>
            </g>
            <g id="Page-1" transform="translate(123.199221, 144.900192) rotate(-47.000000) translate(-123.199221, -144.900192) translate(115.699221, 124.400192)">
                <path d="M8.10677377,15.1083561 L8.10677377,15.1083561 C4.49159087,15.1083561 1.53371396,12.0641351 1.53371396,8.34342054 C1.53371396,4.62270597 4.49159087,1.57848497 8.10677377,1.57848497 C11.7219567,1.57848497 14.6798336,4.62270597 14.6798336,8.34342054 C14.6798336,12.0641351 11.7219567,15.1083561 8.10677377,15.1083561" id="Fill-1" fill="#B6C3D6"></path>
                <g id="Group-7" transform="translate(0.000000, 0.000000)" stroke="#1E212A" stroke-width="1.2" stroke-linecap="round" stroke-linejoin="round">
                    <path d="M6.79216181,13.755369 L6.79216181,13.755369 C3.17697891,13.755369 0.219101994,10.711148 0.219101994,6.99043342 C0.219101994,3.26971886 3.17697891,0.225497852 6.79216181,0.225497852 C10.4073447,0.225497852 13.3652216,3.26971886 13.3652216,6.99043342 C13.3652216,10.711148 10.4073447,13.755369 6.79216181,13.755369 Z" id="Stroke-3"></path>
                    <path d="M6.57305981,0.225497852 L6.57305981,40.8151113" id="Stroke-5"></path>
                </g>
            </g>
            <g id="Page-1" transform="translate(817.130762, 252.738810) rotate(79.000000) translate(-817.130762, -252.738810) translate(811.130762, 235.238810)" stroke="#1E212A" stroke-linecap="round" stroke-linejoin="round">
                <path d="M5.7673299,0.188598204 L5.7673299,34.1362749" id="Stroke-1"></path>
                <path d="M5.95957423,25.2721593 L5.95957423,25.2721593 C2.78754279,25.2721593 0.19224433,22.7260836 0.19224433,19.6142132 C0.19224433,16.5023428 2.78754279,13.9562671 5.95957423,13.9562671 C9.13160568,13.9562671 11.7269041,16.5023428 11.7269041,19.6142132 C11.7269041,22.7260836 9.13160568,25.2721593 5.95957423,25.2721593 Z" id="Stroke-3"></path>
                <path d="M5.95957423,19.9914096 L5.95957423,19.9914096 C2.78754279,19.9914096 0.19224433,17.4453339 0.19224433,14.3334635 C0.19224433,11.2215931 2.78754279,8.67551738 5.95957423,8.67551738 C9.13160568,8.67551738 11.7269041,11.2215931 11.7269041,14.3334635 C11.7269041,17.4453339 9.13160568,19.9914096 5.95957423,19.9914096 Z" id="Stroke-5"></path>
            </g>
            <g id="Page-1" transform="translate(94.357179, 241.120798) rotate(-66.000000) translate(-94.357179, -241.120798) translate(88.357179, 223.620798)" stroke="#1E212A" stroke-linejoin="round" stroke-linecap="round">
                <path d="M5.7673299,0.188598204 L5.7673299,0.776598204" id="Stroke-1"></path>
                <path d="M5.7673299,1.88598204 L5.7673299,33.0046857" id="Stroke-3" stroke-dasharray="1.5,1.5"></path>
                <g id="Group-8" transform="translate(0.000000, 5.657946)">
                    <path d="M5.7673299,27.9125342 L5.7673299,28.5005342" id="Stroke-4"></path>
                    <path d="M5.95957423,22.8203827 C2.78754279,22.8203827 0.19224433,20.2743069 0.19224433,17.1624365 L0.19224433,5.65794611 C0.19224433,2.54607575 2.78754279,-1.0658141e-14 5.95957423,-1.0658141e-14 C9.13160568,-1.0658141e-14 11.7269041,2.54607575 11.7269041,5.65794611 L11.7269041,17.1624365 C11.7269041,20.2743069 9.13160568,22.8203827 5.95957423,22.8203827 Z" id="Stroke-6" stroke-dasharray="1.491999983787537,1.491999983787537"></path>
                </g>
            </g>
            <g id="Page-1" transform="translate(683.414437, 161.458745) rotate(47.000000) translate(-683.414437, -161.458745) translate(676.914437, 143.958745)" stroke="#1E212A" stroke-linejoin="round" stroke-linecap="round">
                <path d="M5.7673299,0.188598204 L5.7673299,0.776598204" id="Stroke-1"></path>
                <path d="M5.7673299,1.88598204 L5.7673299,33.0046857" id="Stroke-3" stroke-dasharray="1.5,1.5"></path>
                <g id="Group-10" transform="translate(-0.000000, 6.412339)">
                    <path d="M5.7673299,27.1581414 L5.7673299,27.7461414" id="Stroke-4"></path>
                    <polyline id="Stroke-6" points="0.76897732 21.6887934 0.19224433 21.6887934 0.332198202 21.1399727"></polyline>
                    <path d="M0.620833839,20.0064975 L5.67532176,0.172378758" id="Stroke-8" stroke-dasharray="1.548499941825867,1.548499941825867"></path>
                </g>
                <polyline id="Stroke-11" points="5.81969726 6.0182064 5.95965113 5.46938563 6.099605 6.0182064"></polyline>
                <g id="Group-16" transform="translate(6.151819, 6.789535)">
                    <path d="M0.236537424,0.362108551 L5.29102535,20.1962273" id="Stroke-12" stroke-dasharray="1.548499941825867,1.548499941825867"></path>
                    <polyline id="Stroke-14" points="5.4352086 20.7627385 5.57516247 21.3115593 4.99842948 21.3115593"></polyline>
                </g>
                <path d="M9.99670516,27.9125342 L1.15300048,27.9125342" id="Stroke-17" stroke-dasharray="1.5,1.5"></path>
            </g>
            <g id="Page-1" transform="translate(19.284152, 190.362716) rotate(-65.000000) translate(-19.284152, -190.362716) translate(13.284152, 172.862716)">
                <path d="M5.95957423,0.188598204 L5.95957423,34.1362749 L5.95957423,0.188598204 Z" id="Stroke-1" stroke="#1E212A" stroke-linecap="round" stroke-linejoin="round"></path>
                <mask id="mask-4" fill="white">
                    <use xlink:href="#path-3"></use>
                </mask>
                <g id="Clip-4"></g>
                <polygon id="Stroke-3" stroke="#1E212A" stroke-linecap="round" stroke-linejoin="round" mask="url(#mask-4)" points="0.19224433 25.6493557 11.7269041 25.6493557 11.7269041 8.67551738 0.19224433 8.67551738"></polygon>
                <polygon id="Stroke-5" stroke="#1E212A" stroke-linecap="round" stroke-linejoin="round" mask="url(#mask-4)" points="0.19224433 19.9914096 11.7269041 19.9914096 11.7269041 8.67551738 0.19224433 8.67551738"></polygon>
            </g>
            <g id="Page-1" transform="translate(220.204372, 151.205030) rotate(-31.000000) translate(-220.204372, -151.205030) translate(213.204372, 133.705030)">
                <g id="Group-7" transform="translate(1.117420, 6.789535)" fill="#03FFB7">
                    <path d="M5.77333754,16.9738383 L5.77333754,16.9738383 C2.70043207,16.9738383 0.186236695,14.4277626 0.186236695,11.3158922 C0.186236695,8.20402187 2.70043207,5.65794611 5.77333754,5.65794611 C8.846243,5.65794611 11.3604384,8.20402187 11.3604384,11.3158922 C11.3604384,14.4277626 8.846243,16.9738383 5.77333754,16.9738383" id="Fill-1"></path>
                    <path d="M5.77333754,7.54392815 L5.77333754,7.54392815 C3.72473389,7.54392815 2.04860364,5.84654432 2.04860364,3.77196408 C2.04860364,1.69738383 3.72473389,8.30446822e-14 5.77333754,8.30446822e-14 C7.82194118,8.30446822e-14 9.49807143,1.69738383 9.49807143,3.77196408 C9.49807143,5.84654432 7.82194118,7.54392815 5.77333754,7.54392815" id="Fill-3"></path>
                    <path d="M5.77333754,22.6317845 L5.77333754,22.6317845 C3.72473389,22.6317845 2.04860364,20.9344006 2.04860364,18.8598204 C2.04860364,16.7852401 3.72473389,15.0878563 5.77333754,15.0878563 C7.82194118,15.0878563 9.49807143,16.7852401 9.49807143,18.8598204 C9.49807143,20.9344006 7.82194118,22.6317845 5.77333754,22.6317845" id="Fill-5"></path>
                </g>
                <g id="Group-16" transform="translate(-0.000000, 0.000000)" stroke="#1E212A" stroke-linecap="round" stroke-linejoin="round">
                    <path d="M5.58710084,0.188598204 L5.58710084,34.1362749" id="Stroke-8"></path>
                    <path d="M5.77333754,22.6317845 L5.77333754,22.6317845 C2.70043207,22.6317845 0.186236695,20.0857087 0.186236695,16.9738383 C0.186236695,13.861968 2.70043207,11.3158922 5.77333754,11.3158922 C8.846243,11.3158922 11.3604384,13.861968 11.3604384,16.9738383 C11.3604384,20.0857087 8.846243,22.6317845 5.77333754,22.6317845 Z" id="Stroke-10"></path>
                    <path d="M5.77333754,13.2018743 L5.77333754,13.2018743 C3.72473389,13.2018743 2.04860364,11.5044904 2.04860364,9.42991019 C2.04860364,7.35532995 3.72473389,5.65794611 5.77333754,5.65794611 C7.82194118,5.65794611 9.49807143,7.35532995 9.49807143,9.42991019 C9.49807143,11.5044904 7.82194118,13.2018743 5.77333754,13.2018743 Z" id="Stroke-12"></path>
                    <path d="M5.77333754,28.2897306 L5.77333754,28.2897306 C3.72473389,28.2897306 2.04860364,26.5923467 2.04860364,24.5177665 C2.04860364,22.4431863 3.72473389,20.7458024 5.77333754,20.7458024 C7.82194118,20.7458024 9.49807143,22.4431863 9.49807143,24.5177665 C9.49807143,26.5923467 7.82194118,28.2897306 5.77333754,28.2897306 Z" id="Stroke-14"></path>
                </g>
            </g>
        </g>
    </g>
</svg>