<svg width="20" height="21" viewBox="0 0 20 21" xmlns="http://www.w3.org/2000/svg"><path d="M9.11 18.427c5.026 0 9.11-4.12 9.11-9.214C18.22 4.12 14.135 0 9.11 0 4.083 0 0 4.12 0 9.213c0 5.094 4.083 9.214 9.11 9.214zm0-2.44c-3.725 0-6.735-3.038-6.735-6.774 0-3.735 3.01-6.772 6.735-6.772 3.724 0 6.734 3.037 6.734 6.772 0 3.736-3.01 6.773-6.734 6.773zm5.291.735l3.566 3.715c.46.48 1.213.485 1.68.011a1.244 1.244 0 0 0 .01-1.725l-3.565-3.715a1.165 1.165 0 0 0-1.68-.012 1.244 1.244 0 0 0-.011 1.726z" fill="#fff" fill-rule="evenodd"/></svg>