<svg xmlns="http://www.w3.org/2000/svg" viewBox="0 0 24 36"><g fill="none" fill-rule="evenodd" stroke="#FF0354"><path stroke-width="1.5" d="M21.26 16.51c.69-1.39 1.07-2.95 1.07-4.59 0-5.75-4.66-10.42-10.41-10.42C6.16 1.5 1.5 6.17 1.5 11.92c0 1.64.38 3.2 1.06 4.59"/><path stroke-width="1.5" d="M2.512 16.396l9.183 17.648 9.59-17.59"/><path stroke-width="1.5" d="M17.625 11.42a5.626 5.626 0 1 1-11.252-.002 5.626 5.626 0 0 1 11.252.002z"/><path d="M15.438 11.42a3.438 3.438 0 1 1-6.877 0 3.438 3.438 0 0 1 6.88 0z"/></g></svg>