<?xml version="1.0" encoding="UTF-8" standalone="no"?>
<svg width="22px" height="34px" viewBox="0 0 22 34" version="1.1" xmlns="http://www.w3.org/2000/svg" xmlns:xlink="http://www.w3.org/1999/xlink">
    <!-- Generator: Sketch 42 (36781) - http://www.bohemiancoding.com/sketch -->
    <title>Page 1</title>
    <desc>Created with Sketch.</desc>
    <defs></defs>
    <g id="MVP" stroke="none" stroke-width="1" fill="none" fill-rule="evenodd">
        <g id="SkillWill_Home_Desktop_Skills_Results_Profile" transform="translate(-763.000000, -324.000000)" stroke="#231F1F">
            <g id="Profil-Layer-centered">
                <g id="Group-28" transform="translate(567.000000, 90.000000)">
                    <g id="Group-17" transform="translate(89.000000, 234.000000)">
                        <g id="Page-1" transform="translate(107.000000, 0.000000)">
                            <path d="M20.2598,15.5098 C20.9498,14.1198 21.3298,12.5598 21.3298,10.9198 C21.3298,5.1698 16.6698,0.4998 10.9198,0.4998 C5.1598,0.4998 0.4998,5.1698 0.4998,10.9198 C0.4998,12.5598 0.8798,14.1198 1.5598,15.5098" id="Stroke-1"></path>
                            <polyline id="Stroke-3" points="1.5117 15.396 10.6947 33.044 20.2837 15.453"></polyline>
                            <path d="M16.625,10.4199 C16.625,13.5259 14.106,16.0449 11,16.0449 C7.894,16.0449 5.375,13.5259 5.375,10.4199 C5.375,7.3139 7.894,4.7949 11,4.7949 C14.106,4.7949 16.625,7.3139 16.625,10.4199 Z" id="Stroke-5"></path>
                            <path d="M14.4375,10.4199 C14.4375,12.3179 12.8985,13.8579 10.9995,13.8579 C9.1015,13.8579 7.5625,12.3179 7.5625,10.4199 C7.5625,8.5219 9.1015,6.9819 10.9995,6.9819 C12.8985,6.9819 14.4375,8.5219 14.4375,10.4199 Z" id="Stroke-7"></path>
                        </g>
                    </g>
                </g>
            </g>
        </g>
    </g>
</svg>