<svg xmlns="http://www.w3.org/2000/svg" viewBox="0 0 31 22"><g fill="none" fill-rule="evenodd"><path stroke="#FF0354" stroke-width="1.5" d="M29.21.955c.5 0 .908.41.908.91V20.29c0 .5-.41.91-.91.91H1.865c-.5 0-.91-.41-.91-.91V1.864c0-.5.41-.91.91-.91H29.21z"/><path stroke="#FF0354" stroke-width="1.5" d="M25.603.955c2 0 3.636.105 3.636.234 0 .12-1.13 1.42-2.51 2.87l-8.63 9.08a3.428 3.428 0 0 1-5.01-.01L4.04 3.6A676.68 676.68 0 0 1 1.54.96c0-.003 1.637-.006 3.637-.006h20.426z"/><path fill="#FF0354" d="M1.946 20.715c-.2.2-.515.207-.705.016a.5.5 0 0 1 .02-.7l7.79-7.8c.2-.2.52-.203.71-.013.19.19.185.507-.014.707L1.95 20.72zm27.124.098c.2.2.515.207.706.016a.5.5 0 0 0-.014-.71l-7.797-7.8a.5.5 0 0 0-.706-.017.5.5 0 0 0 .01.707l7.793 7.796z"/></g></svg>