<?xml version="1.0" encoding="UTF-8" standalone="no"?>
<svg width="34px" height="24px" viewBox="0 0 34 24" version="1.1" xmlns="http://www.w3.org/2000/svg" xmlns:xlink="http://www.w3.org/1999/xlink">
    <!-- Generator: Sketch 42 (36781) - http://www.bohemiancoding.com/sketch -->
    <title>Page 1</title>
    <desc>Created with Sketch.</desc>
    <defs></defs>
    <g id="MVP" stroke="none" stroke-width="1" fill="none" fill-rule="evenodd">
        <g id="SkillWill_Home_Desktop_Skills_Results_Profile" transform="translate(-656.000000, -330.000000)">
            <g id="Profil-Layer-centered">
                <g id="Group-28" transform="translate(567.000000, 90.000000)">
                    <g id="Group-17" transform="translate(89.000000, 234.000000)">
                        <g id="Page-1" transform="translate(0.000000, 6.000000)">
                            <path d="M31.5801,0.5 C32.1301,0.5 32.5801,0.95 32.5801,1.5 L32.5801,21.77 C32.5801,22.319 32.1301,22.77 31.5801,22.77 L1.5001,22.77 C0.9501,22.77 0.5001,22.319 0.5001,21.77 L0.5001,1.5 C0.5001,0.95 0.9501,0.5 1.5001,0.5 L31.5801,0.5 Z" id="Stroke-1" stroke="#231F1F"></path>
                            <path d="M27.6133,0.5 C29.8133,0.5 31.6133,0.616 31.6133,0.758 C31.6133,0.899 30.3733,2.32 28.8573,3.915 L19.3673,13.902 C17.8513,15.497 15.3723,15.497 13.8563,13.901 L3.8993,3.417 C2.3843,1.821 1.1443,0.513 1.1443,0.508 C1.1443,0.504 2.9443,0.5 5.1443,0.5 L27.6133,0.5 Z" id="Stroke-3" stroke="#231F1F"></path>
                            <path d="M1.5908,22.2364 C1.3708,22.4574 1.0238,22.4644 0.8148,22.2544 C0.6038,22.0454 0.6118,21.6974 0.8308,21.4774 L9.4058,12.9024 C9.6248,12.6834 9.9728,12.6754 10.1838,12.8844 C10.3928,13.0944 10.3848,13.4424 10.1658,13.6624 L1.5908,22.2364 Z" id="Fill-5" fill="#231F1F"></path>
                            <path d="M31.4277,22.3438 C31.6467,22.5648 31.9937,22.5718 32.2037,22.3618 C32.4137,22.1528 32.4067,21.8048 32.1877,21.5848 L23.6117,13.0098 C23.3927,12.7908 23.0447,12.7828 22.8347,12.9918 C22.6247,13.2018 22.6327,13.5498 22.8517,13.7698 L31.4277,22.3438 Z" id="Fill-7" fill="#231F1F"></path>
                            <path d="M11.7402,3.9424 C11.7402,5.1434 10.7662,6.1174 9.5652,6.1174 C8.3632,6.1174 7.3902,5.1434 7.3902,3.9424 C7.3902,2.7414 8.3632,1.7674 9.5652,1.7674 C10.7662,1.7674 11.7402,2.7414 11.7402,3.9424 Z" id="Stroke-9" stroke="#231F1F"></path>
                            <path d="M18.4238,2.6934 C18.4238,2.9524 18.2138,3.1624 17.9548,3.1624 L13.1428,3.1624 C12.8838,3.1624 12.6738,2.9524 12.6738,2.6934 C12.6738,2.4344 12.8838,2.2244 13.1428,2.2244 L17.9548,2.2244 C18.2138,2.2244 18.4238,2.4344 18.4238,2.6934" id="Fill-11" fill="#231F1F"></path>
                            <path d="M20.4551,4.0996 C20.4551,4.3586 20.2451,4.5686 19.9861,4.5686 L14.4551,4.5686 C14.1961,4.5686 13.9861,4.3586 13.9861,4.0996 C13.9861,3.8406 14.1961,3.6306 14.4551,3.6306 L19.9861,3.6306 C20.2451,3.6306 20.4551,3.8406 20.4551,4.0996" id="Fill-13" fill="#231F1F"></path>
                            <path d="M18.8613,5.6309 C18.8613,5.8899 18.6513,6.0999 18.3923,6.0999 L13.1743,6.0999 C12.9153,6.0999 12.7053,5.8899 12.7053,5.6309 C12.7053,5.3719 12.9153,5.1619 13.1743,5.1619 L18.3923,5.1619 C18.6513,5.1619 18.8613,5.3719 18.8613,5.6309" id="Fill-15" fill="#231F1F"></path>
                        </g>
                    </g>
                </g>
            </g>
        </g>
    </g>
</svg>